<svg version="1.1" xmlns="http://www.w3.org/2000/svg" viewBox="-361.4720031738281 -3134.464086914062 5710.02939453125 3690.4961181640624"><desc>Created with Snap</desc><defs></defs><g><g><g transform="matrix(1.024,0,0,-1.024,0,0)"><path d="M292 625Q295 625 295 619Q295 613 292 613Q264 613 250 607Q237 601 232 586Q228 572 228 542L228 -12Q228 -120 175 -182Q123 -243 28 -243Q-8 -243 -31 -229Q-53 -214 -53 -188Q-53 -170 -41 -157Q-29 -143 -7 -143Q15 -143 27 -156Q39 -168 49 -190Q56 -206 63 -214Q70 -222 80 -222Q106 -222 118 -186Q131 -149 131 -66L131 544Q131 574 124 588Q118 602 99 607Q81 613 42 613Q40 613 40 619Q40 625 42 625L102 624Q150 622 178 622Q205 622 247 624L292 625ZM749 54L751 54Q755 54 756 49Q757 45 753 43L650 -6Q646 -8 641 -8Q627 -8 614 8Q601 24 596 51L544 23Q486 -7 445 -7Q413 -7 395 9Q378 26 378 55Q378 86 400 101Q422 117 484 138L593 175L593 255Q593 316 579 344Q565 373 537 373Q483 373 475 294Q470 244 424 244Q381 244 381 281Q381 307 413 333Q446 360 492 377Q538 395 574 395Q619 395 646 367Q674 340 674 285L674 108Q674 77 684 61Q694 45 713 45Q728 45 749 54ZM564 51L594 67Q593 71 593 82L593 159L522 133Q496 123 485 111Q474 100 474 83Q474 62 486 50Q498 38 517 38Q538 38 564 51ZM1069 399Q1113 399 1150 378Q1188 357 1210 315Q1233 273 1233 213Q1233 141 1202 90Q1172 39 1122 13Q1072 -13 1016 -13Q938 -13 876 33L791 -6L789 -6Q785 -6 784 -3Q783 1 786 3Q813 20 825 42Q838 65 838 103L838 592Q838 627 831 642Q824 658 807 658Q795 658 768 646L767 646Q763 646 761 651Q759 656 761 658L900 724L905 725Q909 725 914 721Q919 717 919 714L919 325Q952 359 988 379Q1024 399 1069 399ZM1042 7Q1091 7 1117 51Q1143 95 1143 176Q1143 264 1111 308Q1080 353 1027 353Q976 353 919 307L919 154Q919 102 938 69Q958 36 986 21Q1015 7 1042 7ZM1558 396Q1581 396 1602 381Q1623 366 1623 345Q1623 326 1611 314Q1600 302 1580 302Q1567 302 1558 307Q1550 313 1541 323Q1532 332 1525 336Q1518 341 1508 341Q1497 341 1484 332Q1472 324 1446 297L1446 81Q1446 53 1454 38Q1462 24 1481 18Q1500 12 1537 12Q1541 12 1541 6Q1541 0 1537 0Q1504 0 1484 1L1405 2L1347 1Q1333 0 1308 0Q1305 0 1305 6Q1305 12 1308 12Q1342 12 1353 26Q1364 40 1364 81L1364 272Q1364 304 1356 319Q1349 334 1332 334Q1317 334 1282 319L1281 319Q1277 319 1275 324Q1273 329 1276 330L1407 394Q1413 396 1414 396Q1424 396 1434 374Q1444 353 1446 318Q1485 362 1511 379Q1537 396 1558 396ZM1685 0Q1682 0 1682 6Q1682 12 1685 12Q1719 12 1730 26Q1741 40 1741 81L1741 263Q1741 297 1734 312Q1727 328 1710 328Q1695 328 1671 316L1670 316Q1666 316 1664 321Q1662 326 1665 328L1809 395L1812 396Q1816 396 1820 391Q1825 387 1825 384L1825 363Q1823 321 1823 264L1823 81Q1823 40 1834 26Q1846 12 1880 12Q1883 12 1883 6Q1883 0 1880 0Q1855 0 1840 1L1782 2L1724 1Q1710 0 1685 0ZM1777 501Q1751 501 1736 515Q1722 529 1722 555Q1722 580 1736 593Q1751 607 1777 607Q1802 607 1816 593Q1830 580 1830 555Q1830 529 1816 515Q1803 501 1777 501ZM2870 12Q2873 12 2873 6Q2873 0 2870 0Q2836 0 2815 1L2742 2L2657 1Q2639 0 2609 0Q2606 0 2606 6Q2606 12 2609 12Q2647 12 2664 17Q2681 22 2687 36Q2693 50 2693 81L2693 312L2350 312L2350 81Q2350 51 2356 36Q2362 22 2379 17Q2397 12 2435 12Q2437 12 2437 6Q2437 0 2435 0Q2401 0 2382 1L2299 2L2226 1Q2207 0 2173 0Q2171 0 2171 6Q2171 12 2173 12Q2209 12 2226 17Q2243 22 2249 36Q2255 51 2255 81L2255 544Q2255 574 2249 588Q2243 602 2226 607Q2209 613 2174 613Q2172 613 2172 619Q2172 625 2174 625L2227 624Q2273 622 2299 622Q2334 622 2382 624L2435 625Q2437 625 2437 619Q2437 613 2435 613Q2398 613 2380 607Q2363 601 2356 586Q2350 572 2350 542L2350 338L2693 338L2693 542Q2693 572 2687 586Q2681 601 2663 607Q2646 613 2609 613Q2606 613 2606 619Q2606 625 2609 625L2657 624Q2705 622 2742 622Q2769 622 2815 624L2870 625Q2873 625 2873 619Q2873 613 2870 613Q2834 613 2817 607Q2801 602 2795 588Q2789 574 2789 544L2789 81Q2789 51 2795 36Q2801 22 2817 17Q2834 12 2870 12ZM3319 54L3321 54Q3325 54 3326 49Q3327 45 3323 43L3220 -6Q3216 -8 3211 -8Q3197 -8 3184 8Q3171 24 3166 51L3114 23Q3056 -7 3015 -7Q2983 -7 2965 9Q2948 26 2948 55Q2948 86 2970 101Q2992 117 3054 138L3163 175L3163 255Q3163 316 3149 344Q3135 373 3107 373Q3053 373 3045 294Q3040 244 2994 244Q2951 244 2951 281Q2951 307 2983 333Q3016 360 3062 377Q3108 395 3144 395Q3189 395 3216 367Q3244 340 3244 285L3244 108Q3244 77 3254 61Q3264 45 3283 45Q3298 45 3319 54ZM3134 51L3164 67Q3163 71 3163 82L3163 159L3092 133Q3066 123 3055 111Q3044 100 3044 83Q3044 62 3056 50Q3068 38 3087 38Q3108 38 3134 51ZM4076 12Q4080 12 4080 6Q4080 0 4076 0Q4051 0 4036 1L3979 2L3922 1Q3907 0 3882 0Q3879 0 3879 6Q3879 12 3882 12Q3915 12 3927 26Q3939 41 3939 81L3939 230Q3939 286 3919 313Q3900 340 3860 340Q3833 340 3806 327Q3779 314 3759 292L3759 282L3759 81Q3759 40 3770 26Q3782 12 3816 12Q3819 12 3819 6Q3819 0 3816 0Q3791 0 3776 1L3718 2L3661 1Q3646 0 3621 0Q3618 0 3618 6Q3618 12 3621 12Q3655 12 3666 26Q3678 40 3678 81L3678 230Q3678 286 3658 313Q3639 340 3599 340Q3574 340 3548 328Q3522 316 3502 296L3502 81Q3502 40 3513 26Q3524 12 3558 12Q3561 12 3561 6Q3561 0 3558 0Q3533 0 3519 1L3461 2L3403 1Q3389 0 3364 0Q3361 0 3361 6Q3361 12 3364 12Q3398 12 3409 26Q3420 40 3420 81L3420 272Q3420 304 3412 319Q3405 334 3388 334Q3373 334 3338 319L3337 319Q3333 319 3331 324Q3329 329 3332 330L3463 394Q3469 396 3470 396Q3480 396 3490 373Q3501 351 3502 315Q3569 397 3648 397Q3694 397 3722 374Q3750 352 3757 309Q3828 397 3909 397Q3962 397 3990 366Q4019 336 4019 274L4019 81Q4019 40 4030 26Q4042 12 4076 12ZM4131 12L4360 365Q4364 372 4355 372Q4262 372 4210 348Q4159 325 4141 271Q4141 270 4137 270Q4129 270 4130 274L4170 422Q4170 423 4174 423Q4182 423 4181 419Q4179 411 4179 408Q4179 395 4191 390Q4203 386 4230 386L4454 386Q4458 386 4461 382Q4464 378 4462 374L4231 24Q4228 17 4236 17Q4311 17 4355 27Q4400 37 4424 60Q4448 84 4459 126Q4460 129 4465 129Q4471 129 4471 126L4469 11Q4469 7 4466 3Q4463 0 4459 0L4138 0Q4134 0 4131 4Q4129 8 4131 12ZM4916 54L4918 54Q4922 54 4923 49Q4924 45 4920 43L4817 -6Q4813 -8 4808 -8Q4794 -8 4781 8Q4768 24 4763 51L4711 23Q4653 -7 4612 -7Q4580 -7 4562 9Q4545 26 4545 55Q4545 86 4567 101Q4589 117 4651 138L4760 175L4760 255Q4760 316 4746 344Q4732 373 4704 373Q4650 373 4642 294Q4637 244 4591 244Q4548 244 4548 281Q4548 307 4580 333Q4613 360 4659 377Q4705 395 4741 395Q4786 395 4813 367Q4841 340 4841 285L4841 108Q4841 77 4851 61Q4861 45 4880 45Q4895 45 4916 54ZM4731 51L4761 67Q4760 71 4760 82L4760 159L4689 133Q4663 123 4652 111Q4641 100 4641 83Q4641 62 4653 50Q4665 38 4684 38Q4705 38 4731 51Z" fill="#081c4f" style=""></path></g></g><g transform="matrix(2,0,0,2,1457.2547,-1547.2641)"><g transform="matrix(1.024,0,0,-1.024,0,0)"><path d="M292 625Q295 625 295 619Q295 613 292 613Q264 613 250 607Q237 601 232 586Q228 572 228 542L228 -12Q228 -120 175 -182Q123 -243 28 -243Q-8 -243 -31 -229Q-53 -214 -53 -188Q-53 -170 -41 -157Q-29 -143 -7 -143Q15 -143 27 -156Q39 -168 49 -190Q56 -206 63 -214Q70 -222 80 -222Q106 -222 118 -186Q131 -149 131 -66L131 544Q131 574 124 588Q118 602 99 607Q81 613 42 613Q40 613 40 619Q40 625 42 625L102 624Q150 622 178 622Q205 622 247 624L292 625ZM1062 12Q1065 12 1065 6Q1065 0 1062 0Q1028 0 1007 1L934 2L849 1Q831 0 801 0Q798 0 798 6Q798 12 801 12Q839 12 856 17Q873 22 879 36Q885 50 885 81L885 312L542 312L542 81Q542 51 548 36Q554 22 571 17Q589 12 627 12Q629 12 629 6Q629 0 627 0Q593 0 574 1L491 2L418 1Q399 0 365 0Q363 0 363 6Q363 12 365 12Q401 12 418 17Q435 22 441 36Q447 51 447 81L447 544Q447 574 441 588Q435 602 418 607Q401 613 366 613Q364 613 364 619Q364 625 366 625L419 624Q465 622 491 622Q526 622 574 624L627 625Q629 625 629 619Q629 613 627 613Q590 613 572 607Q555 601 548 586Q542 572 542 542L542 338L885 338L885 542Q885 572 879 586Q873 601 855 607Q838 613 801 613Q798 613 798 619Q798 625 801 625L849 624Q897 622 934 622Q961 622 1007 624L1062 625Q1065 625 1065 619Q1065 613 1062 613Q1026 613 1009 607Q993 602 987 588Q981 574 981 544L981 81Q981 51 987 36Q993 22 1009 17Q1026 12 1062 12Z" fill="#081c4f" style=""></path></g></g></g></svg>